<svg width="16" height="16" viewBox="0 0 16 16" fill="none" xmlns="http://www.w3.org/2000/svg">
<path d="M10.9827 3.60522L12.3947 5.01655L10.9827 3.60522ZM11.8907 2.36188L8.07268 6.17988C7.8754 6.37688 7.74086 6.62787 7.68601 6.90122L7.33334 8.66655L9.09868 8.31322C9.37201 8.25855 9.62268 8.12455 9.82001 7.92722L13.638 4.10922C13.7527 3.99449 13.8438 3.85828 13.9058 3.70838C13.9679 3.55847 13.9999 3.39781 13.9999 3.23555C13.9999 3.0733 13.9679 2.91263 13.9058 2.76273C13.8438 2.61282 13.7527 2.47662 13.638 2.36188C13.5233 2.24715 13.3871 2.15614 13.2372 2.09405C13.0873 2.03196 12.9266 2 12.7643 2C12.6021 2 12.4414 2.03196 12.2915 2.09405C12.1416 2.15614 12.0054 2.24715 11.8907 2.36188V2.36188Z" stroke="#323C47" stroke-width="2" stroke-linecap="round" stroke-linejoin="round"/>
<path d="M12.6667 10V12C12.6667 12.3536 12.5262 12.6928 12.2761 12.9428C12.0261 13.1929 11.687 13.3333 11.3333 13.3333H4C3.64638 13.3333 3.30724 13.1929 3.05719 12.9428C2.80714 12.6928 2.66666 12.3536 2.66666 12V4.66667C2.66666 4.31304 2.80714 3.9739 3.05719 3.72386C3.30724 3.47381 3.64638 3.33333 4 3.33333H6" stroke="#323C47" stroke-width="2" stroke-linecap="round" stroke-linejoin="round"/>
</svg>
