<svg width="70" height="52" viewBox="0 0 70 52" fill="none" xmlns="http://www.w3.org/2000/svg">
<path d="M7.07403 0.348114C5.3704 0.348114 3.73654 1.02488 2.53189 2.22953C1.32725 3.43417 0.650482 5.06803 0.650482 6.77166L0.650482 45.3129C0.650482 47.0165 1.32725 48.6504 2.53189 49.8551C3.73654 51.0597 5.3704 51.7365 7.07403 51.7365H62.7447C64.4484 51.7365 66.0822 51.0597 67.2869 49.8551C68.4915 48.6504 69.1683 47.0165 69.1683 45.3129V6.77166C69.1683 5.06803 68.4915 3.43417 67.2869 2.22953C66.0822 1.02488 64.4484 0.348114 62.7447 0.348114H7.07403ZM62.7447 4.63048C63.3126 4.63048 63.8572 4.85606 64.2588 5.25761C64.6603 5.65916 64.8859 6.20378 64.8859 6.77166V32.4658L48.72 24.1281C48.3184 23.9269 47.8637 23.8571 47.4203 23.9286C46.9769 24.0001 46.5671 24.2092 46.2491 24.5263L30.3615 40.4139L18.9704 32.8256C18.5592 32.5517 18.0658 32.4286 17.5741 32.477C17.0824 32.5254 16.6226 32.7423 16.2725 33.0911L4.94141 43.1717V45.4842C4.93629 45.4272 4.93343 45.3701 4.93284 45.3129V6.77166C4.93284 6.20378 5.15843 5.65916 5.55998 5.25761C5.96153 4.85606 6.50615 4.63048 7.07403 4.63048H62.7447Z" fill="#707683"/>
</svg>
